<mxfile host="app.diagrams.net" agent="Mozilla/5.0 (Windows NT 10.0; WOW64) AppleWebKit/537.36 (KHTML, like Gecko) Chrome/94.0.4606.71 Safari/537.36 SE 2.X MetaSr 1.0" version="26.0.14">
  <diagram name="第 1 页" id="Yx-n1sw3S0H9V18orFNg">
    <mxGraphModel dx="2149" dy="767" grid="1" gridSize="10" guides="1" tooltips="1" connect="1" arrows="1" fold="1" page="1" pageScale="1" pageWidth="827" pageHeight="1169" math="0" shadow="0">
      <root>
        <mxCell id="0" />
        <mxCell id="1" parent="0" />
        <mxCell id="rzSXWd4nxounzRFxdCJH-4" value="" style="rounded=1;whiteSpace=wrap;html=1;labelBackgroundColor=none;fontFamily=Verdana;" vertex="1" parent="1">
          <mxGeometry x="-70" y="400" width="640" height="240" as="geometry" />
        </mxCell>
        <mxCell id="rzSXWd4nxounzRFxdCJH-5" value="&lt;div style=&quot;line-height: 50%;&quot;&gt;&lt;p class=&quot;MsoNormal&quot;&gt;&lt;span style=&quot;font-size: 12pt; line-height: 50%;&quot;&gt;&lt;font&gt;任务调度组件&lt;/font&gt;&lt;/span&gt;&lt;/p&gt;&lt;p class=&quot;MsoNormal&quot;&gt;&lt;span style=&quot;font-size: 12pt; line-height: 50%;&quot;&gt;&lt;font&gt;（&lt;/font&gt;&lt;font&gt;ElasticJob Operator&lt;/font&gt;&lt;font&gt;）&lt;/font&gt;&lt;/span&gt;&lt;/p&gt;&lt;/div&gt;" style="rounded=1;whiteSpace=wrap;html=1;labelBackgroundColor=none;fontFamily=Verdana;fillColor=#fff2cc;strokeColor=#d6b656;gradientColor=#ffd966;" vertex="1" parent="1">
          <mxGeometry x="145" y="648.13" width="195" height="60" as="geometry" />
        </mxCell>
        <mxCell id="rzSXWd4nxounzRFxdCJH-6" value="&lt;p class=&quot;MsoNormal&quot;&gt;&lt;br&gt;&lt;/p&gt;" style="text;html=1;align=center;verticalAlign=middle;whiteSpace=wrap;rounded=0;labelBackgroundColor=none;fontFamily=Verdana;" vertex="1" parent="1">
          <mxGeometry x="120" y="290" width="165" height="10" as="geometry" />
        </mxCell>
        <mxCell id="rzSXWd4nxounzRFxdCJH-7" value="&lt;font style=&quot;font-size: 16px;&quot;&gt;DLRover Master&amp;nbsp;&lt;span style=&quot;background-color: transparent;&quot;&gt;Pod&lt;/span&gt;&lt;/font&gt;" style="rounded=0;whiteSpace=wrap;html=1;labelBackgroundColor=none;fontFamily=Verdana;fillColor=#ffcc99;strokeColor=#36393d;" vertex="1" parent="1">
          <mxGeometry x="-57.5" y="580" width="615" height="50" as="geometry" />
        </mxCell>
        <mxCell id="rzSXWd4nxounzRFxdCJH-9" value="GPU节点" style="rounded=0;whiteSpace=wrap;html=1;labelBackgroundColor=none;fontFamily=Verdana;fontSize=15;fillColor=#fff2cc;strokeColor=#d6b656;" vertex="1" parent="1">
          <mxGeometry x="-70" y="780" width="120" height="50" as="geometry" />
        </mxCell>
        <mxCell id="rzSXWd4nxounzRFxdCJH-10" value="GPU节点" style="rounded=0;whiteSpace=wrap;html=1;labelBackgroundColor=none;fontFamily=Verdana;fontSize=15;fillColor=#fff2cc;strokeColor=#d6b656;" vertex="1" parent="1">
          <mxGeometry x="60" y="780" width="120" height="50" as="geometry" />
        </mxCell>
        <mxCell id="rzSXWd4nxounzRFxdCJH-11" value="GPU节点" style="rounded=0;whiteSpace=wrap;html=1;labelBackgroundColor=none;fontFamily=Verdana;fontSize=15;fillColor=#fff2cc;strokeColor=#d6b656;" vertex="1" parent="1">
          <mxGeometry x="190" y="780" width="120" height="50" as="geometry" />
        </mxCell>
        <mxCell id="rzSXWd4nxounzRFxdCJH-12" value="GPU节点" style="rounded=0;whiteSpace=wrap;html=1;labelBackgroundColor=none;fontFamily=Verdana;fontSize=15;fillColor=#fff2cc;strokeColor=#d6b656;" vertex="1" parent="1">
          <mxGeometry x="320" y="780" width="120" height="50" as="geometry" />
        </mxCell>
        <mxCell id="rzSXWd4nxounzRFxdCJH-8" value="&lt;p class=&quot;MsoNormal&quot;&gt;&lt;span style=&quot;font-size: 12pt;&quot;&gt;&lt;font&gt;Kubernetes容器云&lt;/font&gt;&lt;font&gt;集群&lt;/font&gt;&lt;/span&gt;&lt;/p&gt;" style="rounded=1;whiteSpace=wrap;html=1;labelBackgroundColor=none;fontFamily=Verdana;fillColor=#eeeeee;strokeColor=#36393d;" vertex="1" parent="1">
          <mxGeometry x="-70" y="720" width="640" height="50" as="geometry" />
        </mxCell>
        <mxCell id="rzSXWd4nxounzRFxdCJH-1" value="&lt;div style=&quot;line-height: 50%;&quot;&gt;&lt;p class=&quot;MsoNormal&quot;&gt;&lt;span style=&quot;font-size: 12pt; line-height: 50%;&quot;&gt;&lt;font&gt;智能优化组件&lt;/font&gt;&lt;/span&gt;&lt;/p&gt;&lt;p class=&quot;MsoNormal&quot;&gt;&lt;span style=&quot;font-size: 12pt; line-height: 50%;&quot;&gt;&lt;font&gt;（&lt;/font&gt;&lt;font&gt;Brain Service&lt;/font&gt;&lt;font&gt;）&lt;/font&gt;&lt;/span&gt;&lt;/p&gt;&lt;/div&gt;" style="rounded=1;whiteSpace=wrap;html=1;labelBackgroundColor=none;fontFamily=Verdana;fillColor=#d5e8d4;strokeColor=#82b366;gradientColor=#97d077;" vertex="1" parent="1">
          <mxGeometry x="-70" y="648.13" width="195" height="60" as="geometry" />
        </mxCell>
        <mxCell id="rzSXWd4nxounzRFxdCJH-24" value="&lt;div style=&quot;line-height: 50%;&quot;&gt;&lt;p class=&quot;MsoNormal&quot;&gt;&lt;span style=&quot;font-size: 12pt; line-height: 50%;&quot;&gt;&lt;font&gt;集群监控组件&lt;/font&gt;&lt;/span&gt;&lt;/p&gt;&lt;p class=&quot;MsoNormal&quot;&gt;&lt;span style=&quot;font-size: 12pt; line-height: 50%;&quot;&gt;&lt;font&gt;（&lt;/font&gt;&lt;font&gt;Cluster Monitor Agent&lt;/font&gt;&lt;font&gt;）&lt;/font&gt;&lt;/span&gt;&lt;/p&gt;&lt;/div&gt;" style="rounded=1;whiteSpace=wrap;html=1;labelBackgroundColor=none;fontFamily=Verdana;fillColor=#ffcd28;strokeColor=#d79b00;gradientColor=#ffa500;" vertex="1" parent="1">
          <mxGeometry x="360" y="648.13" width="210" height="60" as="geometry" />
        </mxCell>
        <mxCell id="rzSXWd4nxounzRFxdCJH-30" value="GPU节点" style="rounded=0;whiteSpace=wrap;html=1;labelBackgroundColor=none;fontFamily=Verdana;fontSize=15;fillColor=#fff2cc;strokeColor=#d6b656;" vertex="1" parent="1">
          <mxGeometry x="450" y="780" width="120" height="50" as="geometry" />
        </mxCell>
        <mxCell id="rzSXWd4nxounzRFxdCJH-14" value="" style="rounded=0;whiteSpace=wrap;html=1;labelBackgroundColor=none;fontFamily=Verdana;container=0;fillColor=#d5e8d4;strokeColor=#82b366;gradientColor=#97d077;" vertex="1" parent="1">
          <mxGeometry x="-57.5" y="410" width="230" height="160" as="geometry" />
        </mxCell>
        <mxCell id="rzSXWd4nxounzRFxdCJH-29" value="&lt;div style=&quot;line-height: 40%;&quot;&gt;&lt;p class=&quot;MsoNormal&quot;&gt;&lt;span&gt;&lt;font style=&quot;font-size: 15px; line-height: 40%;&quot;&gt;训练监控组件&lt;/font&gt;&lt;/span&gt;&lt;/p&gt;&lt;p class=&quot;MsoNormal&quot;&gt;&lt;span&gt;&lt;font style=&quot;font-size: 15px; line-height: 40%;&quot;&gt;&lt;font&gt;（Training&amp;nbsp;&lt;/font&gt;&lt;font&gt;Monitor Agent&lt;/font&gt;&lt;font&gt;）&lt;/font&gt;&lt;/font&gt;&lt;/span&gt;&lt;/p&gt;&lt;/div&gt;" style="rounded=1;whiteSpace=wrap;html=1;labelBackgroundColor=none;fontFamily=Verdana;container=0;fillColor=#ffcd28;gradientColor=#ffa500;strokeColor=#d79b00;" vertex="1" parent="1">
          <mxGeometry x="-48.940000000000055" y="510" width="211.44" height="51.76" as="geometry" />
        </mxCell>
        <mxCell id="rzSXWd4nxounzRFxdCJH-31" value="&lt;span style=&quot;color: rgb(0, 0, 0); font-size: 16px;&quot;&gt;Worker Pod&lt;/span&gt;" style="text;html=1;align=center;verticalAlign=middle;whiteSpace=wrap;rounded=0;fontColor=#143642;container=0;fontFamily=Verdana;" vertex="1" parent="1">
          <mxGeometry x="4.893617021276668" y="410" width="97.87234042553192" height="28.235294117647054" as="geometry" />
        </mxCell>
        <mxCell id="rzSXWd4nxounzRFxdCJH-32" value="&lt;font style=&quot;color: rgb(0, 0, 0); font-size: 16px;&quot;&gt;弹性训练组件&lt;/font&gt;&lt;div&gt;&lt;font style=&quot;background-color: transparent; color: rgb(0, 0, 0); font-size: 16px;&quot;&gt;（&lt;/font&gt;&lt;font style=&quot;background-color: transparent; color: rgb(0, 0, 0); font-size: 16px;&quot;&gt;Elastic Trainer&lt;/font&gt;&lt;font style=&quot;background-color: transparent; color: rgb(0, 0, 0); font-size: 16px;&quot;&gt;）&lt;/font&gt;&lt;/div&gt;" style="rounded=1;whiteSpace=wrap;html=1;strokeColor=#6c8ebf;fillColor=#dae8fc;container=0;fontFamily=Verdana;gradientColor=#7ea6e0;" vertex="1" parent="1">
          <mxGeometry x="-48.940000000000055" y="445.88" width="211.44" height="54.12" as="geometry" />
        </mxCell>
        <mxCell id="rzSXWd4nxounzRFxdCJH-35" value="&lt;span style=&quot;font-size: 16px;&quot;&gt;Worker Pod&lt;/span&gt;" style="rounded=0;whiteSpace=wrap;html=1;fontFamily=Verdana;fillColor=#f5f5f5;fontColor=#333333;strokeColor=#666666;" vertex="1" parent="1">
          <mxGeometry x="180" y="410" width="120" height="70" as="geometry" />
        </mxCell>
        <mxCell id="rzSXWd4nxounzRFxdCJH-38" value="&lt;span style=&quot;font-size: 16px;&quot;&gt;Worker Pod&lt;/span&gt;" style="rounded=0;whiteSpace=wrap;html=1;fontFamily=Verdana;fillColor=#f5f5f5;fontColor=#333333;strokeColor=#666666;" vertex="1" parent="1">
          <mxGeometry x="310" y="410" width="120" height="70" as="geometry" />
        </mxCell>
        <mxCell id="rzSXWd4nxounzRFxdCJH-39" value="&lt;span style=&quot;font-size: 16px;&quot;&gt;Worker Pod&lt;/span&gt;" style="rounded=0;whiteSpace=wrap;html=1;fontFamily=Verdana;fillColor=#f5f5f5;strokeColor=#666666;fontColor=#333333;" vertex="1" parent="1">
          <mxGeometry x="440" y="410" width="120" height="70" as="geometry" />
        </mxCell>
        <mxCell id="rzSXWd4nxounzRFxdCJH-48" value="&lt;span style=&quot;font-size: 16px;&quot;&gt;Worker Pod&lt;/span&gt;" style="rounded=0;whiteSpace=wrap;html=1;fontFamily=Verdana;fillColor=#f5f5f5;strokeColor=#666666;fontColor=#333333;" vertex="1" parent="1">
          <mxGeometry x="180" y="500" width="120" height="70" as="geometry" />
        </mxCell>
        <mxCell id="rzSXWd4nxounzRFxdCJH-49" value="&lt;span style=&quot;font-size: 16px;&quot;&gt;Worker Pod&lt;/span&gt;" style="rounded=0;whiteSpace=wrap;html=1;fontFamily=Verdana;fillColor=#f5f5f5;strokeColor=#666666;fontColor=#333333;" vertex="1" parent="1">
          <mxGeometry x="310" y="500.88" width="120" height="70" as="geometry" />
        </mxCell>
        <mxCell id="rzSXWd4nxounzRFxdCJH-50" value="&lt;span style=&quot;font-size: 16px;&quot;&gt;Worker Pod&lt;/span&gt;" style="rounded=0;whiteSpace=wrap;html=1;fontFamily=Verdana;fillColor=#f5f5f5;strokeColor=#666666;fontColor=#333333;" vertex="1" parent="1">
          <mxGeometry x="440" y="500" width="120" height="70" as="geometry" />
        </mxCell>
      </root>
    </mxGraphModel>
  </diagram>
</mxfile>
